# xmcd
#
# Track frame offsets:
#	150
#	15195
#	27507
#	41707
#	54900
#	72327
#	90570
#	105170
#	121755
#
# Disc length: 1820 seconds
#
# Revision: 2
# Processed by: cddbd v1.5.1PL0 Copyright (c) Steve Scherf et al.
# Submitted via: audiograbber 1.83.01
#
DISCID=61071a09
DTITLE=Various Artist - Country's Greatest Hits Vol. 14-Superstars
DYEAR=1900
DGENRE=
TTITLE0=Kathy Mattea - Eighteen Wheels
TTITLE1=Tanya Tucker - Strong Enough to Bend
TTITLE2=Anne Murray - A Little Good News
TTITLE3=Dolly Parton - Here You Come Again
TTITLE4=Mary Chapin Carpenter - Quittin' Time
TTITLE5=Rosanne Cash - Runaway Train
TTITLE6=Crystal Gayle - The Sound of Goodbye
TTITLE7=Emmylou Harris - Save the Last Dance for Me
TTITLE8=Janie Fricke - Let's Stop Talking About It
EXTD=
EXTT0=
EXTT1=
EXTT2=
EXTT3=
EXTT4=
EXTT5=
EXTT6=
EXTT7=
EXTT8=
PLAYORDER=
